<svg width="16" height="16" viewBox="0 0 16 16" fill="none" xmlns="http://www.w3.org/2000/svg">
<path d="M7.99992 4.66659C7.63325 4.66659 7.33325 4.96659 7.33325 5.33325V7.33325H5.33325C4.96659 7.33325 4.66659 7.63325 4.66659 7.99992C4.66659 8.36659 4.96659 8.66659 5.33325 8.66659H7.33325V10.6666C7.33325 11.0333 7.63325 11.3333 7.99992 11.3333C8.36659 11.3333 8.66659 11.0333 8.66659 10.6666V8.66659H10.6666C11.0333 8.66659 11.3333 8.36659 11.3333 7.99992C11.3333 7.63325 11.0333 7.33325 10.6666 7.33325H8.66659V5.33325C8.66659 4.96659 8.36659 4.66659 7.99992 4.66659ZM7.99992 1.33325C4.31992 1.33325 1.33325 4.31992 1.33325 7.99992C1.33325 11.6799 4.31992 14.6666 7.99992 14.6666C11.6799 14.6666 14.6666 11.6799 14.6666 7.99992C14.6666 4.31992 11.6799 1.33325 7.99992 1.33325ZM7.99992 13.3333C5.05992 13.3333 2.66659 10.9399 2.66659 7.99992C2.66659 5.05992 5.05992 2.66659 7.99992 2.66659C10.9399 2.66659 13.3333 5.05992 13.3333 7.99992C13.3333 10.9399 10.9399 13.3333 7.99992 13.3333Z" fill="#9873FF"/>
</svg>
